<?xml version="1.0" encoding="utf-8"?>
<!-- Generator: Adobe Illustrator 26.3.1, SVG Export Plug-In . SVG Version: 6.00 Build 0)  -->
<svg version="1.1" id="Layer_1" xmlns="http://www.w3.org/2000/svg" xmlns:xlink="http://www.w3.org/1999/xlink" x="0px" y="0px"
	 viewBox="0 0 50 110" style="enable-background:new 0 0 50 110;" xml:space="preserve">
<style type="text/css">
	.st0{fill:#BF844F;}
	.st1{fill:#A06D42;}
	.st2{fill:#FFD58A;}
	.st3{fill:#8C6239;}
	.st4{fill:#333333;}
	.st5{fill:none;stroke:#E94100;stroke-width:4.5315;stroke-linecap:round;stroke-miterlimit:10;}
	.st6{fill:#0056AA;}
	.st7{fill:#FFE65F;}
</style>
<path d="M37.54,7.06c-1.12,0-2.09,1.19-2.44,2.86c-0.63-1.15-1.54-1.88-2.56-1.88c-1.8,0-3.29,2.3-3.45,5.24
	c-0.35-0.24-0.74-0.38-1.14-0.38c-1.69,0-3.06,2.28-3.06,5.08c0,1.39,0.33,2.64,0.87,3.56h-0.02c-1.56,0-2.83,2.11-2.83,4.71
	c0,1.66,0.51,3.11,1.29,3.95c-0.69,1-1.12,2.49-1.12,4.12c0,2.5,1.01,4.61,2.38,5.25c-0.29,0.81-0.45,1.77-0.45,2.79
	c0,3.03,1.47,5.48,3.3,5.48c0.25,0,0.49-0.04,0.71-0.13c0.02,3.18,1.58,5.76,3.5,5.76c1.29,0,2.41-1.17,3.03-2.88
	c0.43,1.34,1.28,2.24,2.27,2.24c1.08,0,1.99-1.09,2.38-2.66c0.36,0.45,0.82,0.73,1.31,0.73c1.14,0,2.09-1.45,2.19-3.31
	c0.26,0.17,0.54,0.26,0.84,0.26c1.25,0,2.26-1.68,2.26-3.75c0-1.43-0.49-2.67-1.19-3.3c1.19-2.84,1.89-6.31,1.89-10.06
	c0-3.79-0.71-7.31-1.94-10.17c0.82-0.6,1.38-1.96,1.38-3.54c0-2.15-1.04-3.9-2.35-3.9c-0.23,0-0.45,0.06-0.67,0.17
	c0-0.11,0.01-0.23,0.01-0.34c0-2.43-1.19-4.41-2.65-4.41c-0.53,0-1.03,0.26-1.45,0.72C39.38,7.97,38.53,7.06,37.54,7.06L37.54,7.06z
	"/>
<path d="M16.26,4.56c-1.12,0-2.09,1.31-2.44,3.16c-0.63-1.27-1.54-2.08-2.56-2.08c-1.8,0-3.29,2.54-3.45,5.78
	C7.46,11.15,7.08,11,6.67,11c-1.69,0-3.06,2.51-3.06,5.61c0,1.54,0.33,2.91,0.87,3.93H4.46c-1.56,0-2.83,2.33-2.83,5.2
	c0,1.83,0.51,3.43,1.29,4.36c-0.69,1.1-1.12,2.74-1.12,4.55c0,2.76,1.01,5.09,2.38,5.8c-0.29,0.89-0.45,1.95-0.45,3.08
	c0,3.35,1.47,6.05,3.3,6.05c0.25,0,0.49-0.04,0.71-0.15c0.02,3.51,1.58,6.36,3.5,6.36c1.29,0,2.41-1.29,3.03-3.18
	c0.43,1.48,1.28,2.47,2.27,2.47c1.08,0,1.99-1.21,2.38-2.93c0.36,0.5,0.82,0.81,1.31,0.81c1.14,0,2.09-1.6,2.19-3.66
	c0.26,0.19,0.54,0.29,0.84,0.29c1.25,0,2.26-1.85,2.26-4.14c0-1.58-0.49-2.95-1.19-3.64c1.19-3.14,1.89-6.96,1.89-11.1
	c0-4.18-0.71-8.06-1.94-11.22c0.82-0.67,1.38-2.16,1.38-3.91c0-2.37-1.04-4.3-2.35-4.3c-0.23,0-0.45,0.06-0.67,0.19
	c0-0.12,0.01-0.25,0.01-0.37c0-2.68-1.19-4.86-2.65-4.86c-0.53,0-1.03,0.29-1.45,0.79C18.09,5.56,17.24,4.56,16.26,4.56L16.26,4.56z
	"/>
<path d="M45.09,11.05c0-0.77-1.03-1.43-2.49-1.67c1-0.44,1.64-1.06,1.64-1.76c0-1.24-2-2.26-4.55-2.37
	c0.21-0.24,0.33-0.51,0.33-0.79c0-1.16-1.98-2.1-4.42-2.1c-1.21,0-2.29,0.23-3.09,0.6V2.95c0-1.07-1.83-1.95-4.09-1.95
	c-1.44,0-2.7,0.35-3.44,0.89c-0.87-0.47-2.16-0.77-3.58-0.77c-2.18,0-4.01,0.69-4.56,1.64c-0.7-0.2-1.54-0.31-2.42-0.31
	c-2.63,0-4.76,1.01-4.76,2.27c0,0.17,0.03,0.33,0.11,0.49C7,5.21,4.76,6.28,4.76,7.6c0,0.89,1.01,1.66,2.5,2.08
	c-1.16,0.3-1.95,0.88-1.95,1.56c0,0.74,0.95,1.37,2.31,1.64c-0.39,0.25-0.64,0.56-0.64,0.9c0,0.79,1.26,1.43,2.88,1.5
	c-0.15,0.18-0.23,0.37-0.23,0.58c0,0.86,1.46,1.55,3.26,1.55c1.24,0,2.32-0.33,2.86-0.82c2.47,0.82,5.48,1.3,8.74,1.3
	c3.29,0,6.35-0.49,8.84-1.33c0.52,0.56,1.7,0.95,3.08,0.95c1.87,0,3.39-0.72,3.39-1.61c0-0.16-0.05-0.31-0.15-0.46
	c0.1,0,0.2,0.01,0.29,0.01c2.11,0,3.83-0.82,3.83-1.82c0-0.37-0.23-0.71-0.62-1C44.3,12.31,45.09,11.73,45.09,11.05L45.09,11.05z"/>
<path class="st0" d="M28.25,39.27c0,2.09-1.78,3.82-3.98,3.82h-0.03c-2.19,0-4.01-1.73-4.01-3.82v-3.35h8.02V39.27z"/>
<path class="st1" d="M20.23,38.4c1.55,0.64,3.17,0.98,4.73,0.98c1.08,0,2.19-0.17,3.29-0.48v-2.41h-8.02V38.4L20.23,38.4z"/>
<path class="st2" d="M25.31,38.09c-5.71,0-12.57-4.75-12.57-11.4V16.38c0-5.36,4.56-9.72,10.21-9.72h4.79
	c5.63,0,10.21,4.34,10.21,9.72v10.31C37.95,33.35,31.02,38.09,25.31,38.09L25.31,38.09z"/>
<ellipse class="st2" cx="12.4" cy="21.3" rx="3.58" ry="3.41"/>
<path class="st3" d="M11.68,21.78c0-0.67,0.57-1.21,1.28-1.21c0.2,0,0.38,0.05,0.54,0.11c-0.23-0.36-0.62-0.59-1.1-0.59
	c-0.7,0-1.28,0.55-1.28,1.21c0,0.48,0.29,0.9,0.74,1.09C11.74,22.2,11.68,22,11.68,21.78z"/>
<ellipse class="st4" cx="20.95" cy="21.7" rx="0.82" ry="1.37"/>
<ellipse class="st4" cx="31.34" cy="21.7" rx="0.82" ry="1.37"/>
<path class="st3" d="M25.36,23.96v0.97c0,0.94,0.81,1.71,1.8,1.71h0c0.43,0,0.65-0.47,0.38-0.76l-1.78-2.02
	C25.63,23.67,25.36,23.77,25.36,23.96L25.36,23.96z"/>
<ellipse class="st2" cx="37.94" cy="21.3" rx="3.58" ry="3.41"/>
<path class="st3" d="M39.13,21.78c0-0.67-0.57-1.21-1.28-1.21c-0.2,0-0.38,0.05-0.54,0.11c0.23-0.36,0.62-0.59,1.1-0.59
	c0.7,0,1.28,0.55,1.28,1.21c0,0.48-0.29,0.9-0.74,1.09C39.07,22.2,39.13,22,39.13,21.78L39.13,21.78z"/>
<path class="st5" d="M21.77,30.77c0,0.95,1.82,1.73,4.04,1.73l0,0c2.23,0,4.04-0.78,4.04-1.73"/>
<path class="st6" d="M37.47,72.18H12.6l-0.23-23.67c0-2.73,2.88-8.88,7.23-8.88h10.39c4.91,0,7.23,5.59,7.23,8.3L37.47,72.18z"/>
<path class="st6" d="M4.44,77l0.31,0.08c1.52,0.4,3.19-0.76,3.71-2.62L20.49,44c0.54-1.84,0.31-3.77-1.21-4.17l-0.31-0.08
	c-2.21-0.56-6.61,1.85-10.5,13.66L2.64,72.95C2.11,74.78,2.92,76.59,4.44,77z"/>
<path d="M21.89,104.92v3.29c0,0.85-0.73,1.55-1.62,1.55l-8.54,0.04c-1.68,0.01-2.29-2.14-0.81-2.91c0.42-0.22,0.92-0.39,1.5-0.49
	c1.53-0.26,2.95-0.01,4.02,0.34c1.01,0.32,2.07-0.34,2.15-1.35l0.05-0.59c0.07-0.81,0.77-1.43,1.63-1.43h0
	C21.16,103.37,21.89,104.06,21.89,104.92z"/>
<path d="M28.86,103.37v4.69c0,0.94,0.8,1.7,1.78,1.7l7.4,0.03c2.15,0.01,2.5-2.98,0.39-3.37c-0.03-0.01-0.06-0.01-0.1-0.02
	c-1.46-0.25-2.82-0.03-3.87,0.29c-1.1,0.33-2.23-0.43-2.32-1.52l-0.02-0.23c-0.07-0.89-0.85-1.57-1.79-1.57H28.86L28.86,103.37z"/>
<path class="st2" d="M8.66,78.77c-0.25-1.37-0.39-3.18-0.44-3.94c-0.02-0.22-0.18-0.4-0.41-0.45l-4.52-0.87
	c-0.23-0.05-0.47,0.06-0.57,0.28C1.79,75.72,0.95,77.28,1,80.52c0.08,4.64,1.44,5.37,2.32,5.19c0.54-0.11,0.56-0.83,0.49-1.37
	c0.41,1.12,1.72,0.72,1.72-0.5c0.23,0.02,1.42,0.03,1.19-1.64c-0.1-0.76-0.08-2.4,0.11-3.21c0.03,0.19,0.07,0.37,0.1,0.58
	C7.2,80.92,8.97,80.55,8.66,78.77L8.66,78.77z"/>
<path class="st6" d="M45.67,77l-0.31,0.08c-1.52,0.4-3.19-0.76-3.71-2.62L29.62,44c-0.54-1.84-0.31-3.77,1.21-4.17l0.31-0.08
	c2.95,0.22,6.22,3.44,10.11,15.25l6.22,17.94C47.99,74.78,47.19,76.59,45.67,77L45.67,77z"/>
<path class="st2" d="M41.45,78.77c0.25-1.37,0.39-3.18,0.44-3.94c0.02-0.22,0.18-0.4,0.41-0.45l4.52-0.87
	c0.23-0.05,0.47,0.06,0.57,0.28c0.93,1.93,1.77,3.49,1.72,6.73c-0.08,4.64-1.44,5.37-2.32,5.19c-0.54-0.11-0.56-0.83-0.49-1.37
	c-0.41,1.12-1.72,0.72-1.72-0.5c-0.23,0.02-1.42,0.03-1.19-1.64c0.1-0.76,0.08-2.4-0.11-3.21c-0.03,0.19-0.07,0.37-0.1,0.58
	C42.9,80.92,41.14,80.55,41.45,78.77L41.45,78.77z"/>
<path class="st6" d="M35.2,72.2h-19.9l-0.18-23.87c0-2.75,2.3-8.95,5.79-8.95h8.31c3.93,0,5.79,5.64,5.79,8.37L35.2,72.2z"/>
<path d="M6.57,105.96"/>
<polyline class="st6" points="6.08,103.9 15.1,72.2 35.06,72.2 43.77,103.9 "/>
<path class="st7" d="M32.96,72.14H17.03l-0.15-23.78c0-2.74,1.84-8.92,4.63-8.92h6.65c3.14,0,4.63,5.62,4.63,8.34L32.96,72.14z"/>
<path d="M45.09,10.05c0-0.69-1.03-1.29-2.49-1.51c1-0.39,1.64-0.95,1.64-1.58c0-1.11-2-2.03-4.55-2.13
	c0.21-0.22,0.33-0.46,0.33-0.71c0-1.04-1.98-1.89-4.42-1.89c-1.21,0-2.29,0.2-3.09,0.54V2.75c0-0.97-1.83-1.75-4.09-1.75
	c-1.44,0-2.7,0.32-3.44,0.8c-0.87-0.43-2.16-0.69-3.58-0.69c-2.18,0-4.01,0.62-4.56,1.47c-0.7-0.18-1.54-0.28-2.42-0.28
	c-2.63,0-4.76,0.91-4.76,2.04c0,0.15,0.03,0.3,0.11,0.44C7,4.79,4.76,5.75,4.76,6.95c0,0.8,1.01,1.49,2.5,1.87
	c-1.16,0.27-1.95,0.79-1.95,1.4c0,0.67,0.95,1.23,2.31,1.47c-0.39,0.22-0.64,0.5-0.64,0.81c0,0.71,1.26,1.29,2.88,1.35
	c-0.15,0.16-0.23,0.34-0.23,0.52c0,0.77,1.46,1.4,3.26,1.4c1.24,0,2.32-0.3,2.86-0.74c2.47,0.74,5.48,1.17,8.74,1.17
	c3.29,0,6.35-0.44,8.84-1.2c0.52,0.5,1.7,0.86,3.08,0.86c1.87,0,3.39-0.65,3.39-1.45c0-0.14-0.05-0.28-0.15-0.41
	c0.1,0,0.2,0.01,0.29,0.01c2.11,0,3.83-0.74,3.83-1.64c0-0.33-0.23-0.64-0.62-0.9C44.3,11.19,45.09,10.66,45.09,10.05L45.09,10.05z"
	/>
</svg>
