<?xml version="1.0" encoding="utf-8"?>
<!-- Generator: Adobe Illustrator 26.3.1, SVG Export Plug-In . SVG Version: 6.00 Build 0)  -->
<svg version="1.1" id="Layer_1" xmlns="http://www.w3.org/2000/svg" xmlns:xlink="http://www.w3.org/1999/xlink" x="0px" y="0px"
	 viewBox="0 0 50 110" style="enable-background:new 0 0 50 110;" xml:space="preserve">
<style type="text/css">
	.st0{fill:#BF844F;}
	.st1{fill:#A06D42;}
	.st2{fill:#FFD58A;}
	.st3{fill:#8C6239;}
	.st4{fill:#333333;}
	.st5{fill:none;stroke:#FF8800;stroke-width:4.5315;stroke-linecap:round;stroke-miterlimit:10;}
	.st6{fill:#9B35FF;}
	.st7{fill:#71C900;}
	.st8{fill:#EF5FFF;}
	.st9{opacity:0.68;}
	.st10{fill:#000B35;}
</style>
<path d="M44.05,16.07c0.09-1.04-0.85-2.01-2.27-2.44c1.05-0.51,1.76-1.31,1.84-2.25c0.15-1.67-1.71-3.2-4.23-3.53
	c0.24-0.31,0.39-0.66,0.42-1.04c0.14-1.57-1.71-2.98-4.14-3.17c-1.2-0.09-2.31,0.13-3.15,0.58l0-0.02c0.13-1.45-1.59-2.76-3.83-2.93
	c-1.43-0.11-2.73,0.27-3.52,0.94c-0.8-0.71-2.05-1.2-3.47-1.31c-2.16-0.16-4.07,0.64-4.74,1.87c-0.67-0.33-1.49-0.53-2.37-0.6
	c-2.62-0.2-4.86,1.01-5.01,2.7C9.56,5.1,9.57,5.33,9.64,5.54C6.88,5.36,4.52,6.63,4.36,8.42c-0.11,1.2,0.81,2.31,2.24,2.99
	c-1.19,0.31-2.04,1.04-2.13,1.96c-0.09,1,0.78,1.92,2.09,2.38c-0.42,0.31-0.7,0.71-0.74,1.17c-0.1,1.06,1.08,2.03,2.68,2.24
	c-0.17,0.23-0.27,0.49-0.3,0.76c-0.1,1.16,1.26,2.2,3.05,2.33c1.24,0.09,2.35-0.28,2.95-0.89c2.36,1.29,5.29,2.16,8.53,2.4
	c3.27,0.24,6.37-0.19,8.95-1.14c0.45,0.8,1.58,1.41,2.94,1.51c1.85,0.14,3.46-0.72,3.56-1.92c0.02-0.21-0.01-0.42-0.09-0.63
	c0.1,0.01,0.19,0.03,0.29,0.03c2.1,0.16,3.91-0.82,4.03-2.17c0.04-0.49-0.14-0.97-0.5-1.39C43.11,17.71,43.97,16.98,44.05,16.07
	L44.05,16.07z"/>
<path class="st0" d="M28.19,37.37c0,1.99-1.78,3.64-3.97,3.64h-0.03c-2.19,0-4-1.65-4-3.64v-3.19h8V37.37z"/>
<path class="st1" d="M20.19,36.54c1.55,0.61,3.17,0.94,4.72,0.94c1.08,0,2.19-0.16,3.28-0.46v-2.3h-8V36.54L20.19,36.54z"/>
<path class="st2" d="M24.98,36.25c-5.7,0-12.54-4.53-12.54-10.87v-9.83c0-5.11,4.55-9.27,10.19-9.27h4.78
	c5.62,0,10.19,4.14,10.19,9.27v9.83C37.58,31.73,30.67,36.25,24.98,36.25L24.98,36.25z"/>
<path d="M45.77,11.27c0.01-0.64-1.01-1.21-2.47-1.44c1.01-0.35,1.66-0.86,1.67-1.45c0.02-1.03-1.97-1.92-4.52-2.05
	c0.21-0.2,0.33-0.41,0.34-0.64c0.03-0.95-1.93-1.78-4.32-1.84c-1.24-0.03-2.36,0.15-3.18,0.45l0-0.01c0.01-0.71-1.11-1.38-2.83-1.6
	c-1.94-0.25-3.75,0.04-4.7,0.6c-0.86-0.41-2.15-0.68-3.58-0.7c-2.18-0.03-4.03,0.52-4.6,1.3c-1.14-0.29-2.62-0.38-4.11-0.22
	c-1.83,0.21-3.02,0.87-3.11,1.63c-0.02,0.18,0,0.35,0.1,0.52C7.67,5.79,5.41,6.65,5.39,7.76C5.37,8.5,6.38,9.16,7.86,9.53
	c-1.17,0.23-1.97,0.7-1.98,1.27c-0.01,0.62,0.93,1.16,2.29,1.4c-0.4,0.2-0.65,0.46-0.65,0.74c-0.01,0.66,1.24,1.22,2.86,1.3
	c-0.25,0.25-0.32,0.53-0.13,0.82c0.29,0.46,1.23,0.83,2.39,0.96c1.55,0.16,2.97-0.12,3.63-0.59c2.46,0.72,5.47,1.17,8.74,1.22
	c3.3,0.05,6.37-0.31,8.88-0.97c0.52,0.48,1.69,0.82,3.07,0.84c1.87,0.03,3.41-0.55,3.42-1.29c0-0.13-0.04-0.26-0.14-0.39
	c0.1,0,0.2,0.01,0.3,0.01c2.12,0.03,3.85-0.62,3.87-1.46c0.01-0.31-0.22-0.6-0.61-0.84C44.96,12.31,45.75,11.84,45.77,11.27
	L45.77,11.27z"/>
<ellipse class="st2" cx="12.37" cy="20.24" rx="3.58" ry="3.25"/>
<path class="st3" d="M11.65,20.7c0-0.64,0.57-1.16,1.27-1.16c0.2,0,0.38,0.04,0.54,0.1c-0.23-0.34-0.62-0.56-1.09-0.56
	c-0.7,0-1.27,0.52-1.27,1.16c0,0.46,0.29,0.86,0.73,1.04C11.72,21.1,11.65,20.91,11.65,20.7z"/>
<ellipse class="st4" cx="19.38" cy="20.62" rx="0.82" ry="1.31"/>
<ellipse class="st4" cx="31.29" cy="20.62" rx="0.82" ry="1.31"/>
<path class="st3" d="M24.61,23.88v0.92c0,0.9,0.81,1.63,1.8,1.63h0c0.42,0,0.65-0.45,0.38-0.73L25,23.78
	C24.89,23.61,24.61,23.7,24.61,23.88L24.61,23.88z"/>
<ellipse class="st2" cx="37.86" cy="20.24" rx="3.58" ry="3.25"/>
<path class="st3" d="M39.05,20.7c0-0.64-0.57-1.16-1.27-1.16c-0.2,0-0.38,0.04-0.54,0.1c0.23-0.34,0.62-0.56,1.09-0.56
	c0.7,0,1.27,0.52,1.27,1.16c0,0.46-0.29,0.86-0.73,1.04C38.98,21.1,39.05,20.91,39.05,20.7L39.05,20.7z"/>
<path class="st5" d="M21.73,29.5c0,0.78,1.81,1.41,4.03,1.41l0,0c2.22,0,4.03-0.63,4.03-1.41"/>
<path class="st6" d="M37.39,68.76H12.51l-0.23-22.57c0-2.6,2.88-8.46,7.23-8.46h10.39c4.91,0,7.23,5.33,7.23,7.91L37.39,68.76z"/>
<path class="st7" d="M25.08,80.04h-0.21c-6.79,0-12.31-5.08-12.31-11.26v-0.03h24.81v0.03C37.37,74.96,31.87,80.04,25.08,80.04
	L25.08,80.04z"/>
<path class="st6" d="M4.81,73.35l0.31,0.07c1.52,0.39,3.18-0.73,3.71-2.49l12-29.05c0.54-1.75,0.31-3.59-1.21-3.98l-0.31-0.07
	c-2.2-0.53-6.6,1.77-10.48,13.02L3.02,69.48C2.49,71.24,3.29,72.96,4.81,73.35z"/>
<path class="st6" d="M20.98,103v6.09l-13.19,0.06c0,0,0.49-2.73,3.74-3.25c3.23-0.53,5.97,1.16,5.97,1.16l0.34-4.05H20.98z"/>
<path class="st7" d="M15.99,68.76h6.69v35.09h-6.69V68.76z"/>
<path class="st6" d="M28.84,103v6.09l13.19,0.06c0,0-0.49-2.73-3.74-3.25c-3.23-0.53-5.97,1.16-5.97,1.16L31.97,103H28.84L28.84,103
	z"/>
<path class="st7" d="M33.77,103.85h-6.69v-35.1h6.69V103.85z"/>
<path class="st2" d="M8.64,75.04c-0.24-1.31-0.39-3.03-0.44-3.76c-0.02-0.21-0.18-0.39-0.41-0.43l-4.51-0.83
	c-0.23-0.04-0.47,0.06-0.57,0.27C1.79,72.13,0.95,73.61,1,76.7c0.08,4.43,1.44,5.12,2.32,4.94c0.54-0.1,0.56-0.79,0.49-1.31
	c0.41,1.07,1.71,0.68,1.71-0.48c0.23,0.01,1.42,0.03,1.19-1.56c-0.1-0.73-0.08-2.29,0.11-3.06c0.03,0.18,0.07,0.36,0.1,0.55
	C7.19,77.09,8.95,76.73,8.64,75.04L8.64,75.04z"/>
<path class="st6" d="M45.57,73.35l-0.31,0.07c-1.52,0.39-3.18-0.73-3.71-2.49l-12-29.05c-0.54-1.75-0.31-3.59,1.21-3.98l0.31-0.07
	c2.94,0.21,6.2,3.28,10.09,14.54l6.2,17.11C47.89,71.24,47.09,72.96,45.57,73.35L45.57,73.35z"/>
<path class="st2" d="M41.36,75.04c0.24-1.31,0.39-3.03,0.44-3.76c0.02-0.21,0.18-0.39,0.41-0.43l4.51-0.83
	c0.23-0.04,0.47,0.06,0.57,0.27c0.93,1.84,1.76,3.33,1.71,6.42c-0.08,4.43-1.44,5.12-2.32,4.94c-0.54-0.1-0.56-0.79-0.49-1.31
	c-0.41,1.07-1.71,0.68-1.71-0.48c-0.23,0.01-1.42,0.03-1.19-1.56c0.1-0.73,0.08-2.29-0.11-3.06c-0.03,0.18-0.07,0.36-0.1,0.55
	C42.81,77.09,41.05,76.73,41.36,75.04L41.36,75.04z"/>
<path class="st8" d="M32.86,68.77H16.96L16.82,46.1c0-2.61,1.84-8.5,4.62-8.5h6.64c3.14,0,4.62,5.36,4.62,7.95L32.86,68.77z"/>
<path class="st9" d="M21.5,22.56h-3.93c-1.07,0-1.94-0.87-1.94-1.94v0c0-1.07,0.87-1.94,1.94-1.94h3.93c1.07,0,1.94,0.87,1.94,1.94
	v0C23.44,21.7,22.57,22.56,21.5,22.56z"/>
<path class="st9" d="M33.25,22.56h-3.93c-1.07,0-1.94-0.87-1.94-1.94v0c0-1.07,0.87-1.94,1.94-1.94h3.93c1.07,0,1.94,0.87,1.94,1.94
	v0C35.19,21.7,34.32,22.56,33.25,22.56z"/>
<path class="st2" d="M23.44,20.62"/>
<rect x="23.44" y="20.4" class="st10" width="3.94" height="0.22"/>
<path d="M21.11,38.43"/>
<polygon points="22.55,37.79 22.55,57.87 25.2,60.94 27.12,57.75 27.12,37.79 "/>
</svg>
